# xmcd
#
# Track frame offsets: 
#        150
#        17955
#        36383
#        55496
#        76200
#        95092
#        112203
#        130801
#        147015
#        162829
#        180667
#        198229
#        214684
#        232058
#        256140
#        272757
#        289218
#        316693
#
# Disc length: 4458 seconds
#
# Revision: 0
# Processed by: cddbd v1.5.1PL2 Copyright (c) Steve Scherf et al.
# Submitted via: ExactAudioCopy v0.95a5
#
DISCID=0a116812
DTITLE=Toni Braxton - Libra [+ bonus]
DYEAR=2005
DGENRE=R&B
TTITLE0=Please
TTITLE1=Trippin' (That's the Way Love Works)
TTITLE2=What's Good
TTITLE3=Take this Ring
TTITLE4=Midnite
TTITLE5=I Wanna Be (Your Baby)
TTITLE6=Sposed to Be
TTITLE7=Stupid
TTITLE8=Finally
TTITLE9=Shadowless
TTITLE10=Un Break My Heart
TTITLE11=What Cha Need [unreleased]
TTITLE12=You Makin Me High [rmx]
TTITLE13=Hit the Freeway [qualifide rmx]
TTITLE14=Give it Back [alternate LP mix]
TTITLE15=Spanish Guitar [royal Garden Mousse T mix]
TTITLE16=Un Break My Heart [soul hex anthem mix]
TTITLE17=Please [instr.]
EXTD=
EXTT0=
EXTT1=
EXTT2=
EXTT3=
EXTT4=
EXTT5=
EXTT6=
EXTT7=
EXTT8=
EXTT9=
EXTT10=
EXTT11=
EXTT12=
EXTT13=
EXTT14=
EXTT15=
EXTT16=
EXTT17=
PLAYORDER=
